<svg xmlns="http://www.w3.org/2000/svg" xmlns:xlink="http://www.w3.org/1999/xlink" width="2000" zoomAndPan="magnify" viewBox="0 0 1500 1499.999933" height="2000" preserveAspectRatio="xMidYMid meet" version="1.0"><defs><g/><clipPath id="80796c6e57"><rect x="0" width="1186" y="0" height="1274"/></clipPath><clipPath id="6969a25c3c"><rect x="0" width="1184" y="0" height="1276"/></clipPath></defs><g transform="matrix(1, 0, 0, 1, 0, 160)"><g clip-path="url(#80796c6e57)"><g fill="#be0032" fill-opacity="1"><g transform="translate(83.259672, 690.52634)"><g><path d="M 835.96875 -248.984375 L 939.875 -162.125 L 635.015625 202.609375 C 611.304688 230.972656 583.707031 253.125 552.21875 269.0625 C 520.738281 285 487.710938 294.507812 453.140625 297.59375 C 418.578125 300.6875 384.503906 297.28125 350.921875 287.375 C 317.347656 277.46875 286.382812 260.664062 258.03125 236.96875 L 244.078125 225.3125 C 215.710938 201.601562 193.5625 174.003906 177.625 142.515625 C 161.6875 111.035156 152.171875 78.007812 149.078125 43.4375 C 145.984375 8.875 149.484375 -25.3125 159.578125 -59.125 C 169.671875 -92.9375 186.570312 -124.023438 210.28125 -152.390625 L 515.140625 -517.125 L 619.765625 -429.6875 L 314.90625 -64.953125 C 299.363281 -46.347656 289.613281 -25.46875 285.65625 -2.3125 C 281.707031 20.832031 283.613281 43.347656 291.375 65.234375 C 299.132812 87.128906 312.316406 105.851562 330.921875 121.40625 L 344.875 133.0625 C 363.46875 148.601562 384.222656 158.25 407.140625 162 C 430.066406 165.757812 452.570312 163.640625 474.65625 155.640625 C 496.75 147.648438 515.566406 134.351562 531.109375 115.75 Z M 835.96875 -248.984375 "/></g></g></g></g></g><g transform="matrix(1, 0, 0, 1, 316, 65)"><g clip-path="url(#6969a25c3c)"><g fill="#0a0a0a" fill-opacity="1"><g transform="translate(1106.105938, 578.042728)"><g><path d="M -836.015625 249 L -939.9375 162.15625 L -635.046875 -202.609375 C -611.347656 -230.972656 -583.753906 -253.125 -552.265625 -269.0625 C -520.773438 -285.007812 -487.742188 -294.53125 -453.171875 -297.625 C -418.609375 -300.71875 -384.535156 -297.3125 -350.953125 -287.40625 C -317.367188 -277.5 -286.394531 -260.691406 -258.03125 -236.984375 L -244.09375 -225.328125 C -215.726562 -201.617188 -193.578125 -174.019531 -177.640625 -142.53125 C -161.703125 -111.050781 -152.179688 -78.023438 -149.078125 -43.453125 C -145.984375 -8.890625 -149.484375 25.300781 -159.578125 59.125 C -169.679688 92.945312 -186.582031 124.039062 -210.28125 152.40625 L -515.171875 517.171875 L -619.796875 429.71875 L -314.90625 64.953125 C -299.363281 46.347656 -289.613281 25.46875 -285.65625 2.3125 C -281.707031 -20.84375 -283.617188 -43.367188 -291.390625 -65.265625 C -299.160156 -87.160156 -312.34375 -105.878906 -330.9375 -121.421875 L -344.875 -133.078125 C -363.476562 -148.617188 -384.238281 -158.269531 -407.15625 -162.03125 C -430.082031 -165.789062 -452.585938 -163.671875 -474.671875 -155.671875 C -496.765625 -147.671875 -515.582031 -134.367188 -531.125 -115.765625 Z M -836.015625 249 "/></g></g></g></g></g></svg>