<svg xmlns="http://www.w3.org/2000/svg" xmlns:xlink="http://www.w3.org/1999/xlink" width="2000" zoomAndPan="magnify" viewBox="0 0 1500 562.499983" height="750" preserveAspectRatio="xMidYMid meet" version="1.0"><defs><g/><clipPath id="429810382f"><path d="M 907 30 L 1288 30 L 1288 425.242188 L 907 425.242188 Z M 907 30 " clip-rule="nonzero"/></clipPath><clipPath id="3bf9b2c1db"><rect x="0" width="381" y="0" height="396"/></clipPath><clipPath id="c58652ec77"><path d="M 1017 0.820312 L 1396.953125 0.820312 L 1396.953125 397 L 1017 397 Z M 1017 0.820312 " clip-rule="nonzero"/></clipPath><clipPath id="a2c78ca2ef"><rect x="0" width="380" y="0" height="397"/></clipPath><clipPath id="c649addb51"><path d="M 0.195312 40 L 1032 40 L 1032 386 L 0.195312 386 Z M 0.195312 40 " clip-rule="nonzero"/></clipPath><clipPath id="40eef5fce7"><rect x="0" width="1032" y="0" height="346"/></clipPath><clipPath id="54075c77d8"><rect x="0" width="1397" y="0" height="426"/></clipPath></defs><g transform="matrix(1, 0, 0, 1, 82, 68)"><g clip-path="url(#54075c77d8)"><g clip-path="url(#429810382f)"><g transform="matrix(1, 0, 0, 1, 907, 30)"><g clip-path="url(#3bf9b2c1db)"><g fill="#be0032" fill-opacity="1"><g transform="translate(38.315591, 214.175783)"><g><path d="M 259.265625 -77.21875 L 291.484375 -50.28125 L 196.9375 62.84375 C 189.582031 71.632812 181.019531 78.503906 171.25 83.453125 C 161.488281 88.398438 151.25 91.351562 140.53125 92.3125 C 129.8125 93.269531 119.242188 92.207031 108.828125 89.125 C 98.410156 86.050781 88.804688 80.835938 80.015625 73.484375 L 75.6875 69.875 C 66.894531 62.519531 60.023438 53.960938 55.078125 44.203125 C 50.140625 34.441406 47.191406 24.203125 46.234375 13.484375 C 45.273438 2.765625 46.359375 -7.835938 49.484375 -18.328125 C 52.617188 -28.816406 57.863281 -38.457031 65.21875 -47.25 L 159.765625 -160.375 L 192.203125 -133.265625 L 97.65625 -20.140625 C 92.832031 -14.378906 89.804688 -7.90625 88.578125 -0.71875 C 87.359375 6.46875 87.953125 13.453125 90.359375 20.234375 C 92.765625 27.023438 96.847656 32.832031 102.609375 37.65625 L 106.9375 41.265625 C 112.707031 46.085938 119.148438 49.082031 126.265625 50.25 C 133.378906 51.414062 140.359375 50.753906 147.203125 48.265625 C 154.054688 45.785156 159.894531 41.664062 164.71875 35.90625 Z M 259.265625 -77.21875 "/></g></g></g></g></g></g><g clip-path="url(#c58652ec77)"><g transform="matrix(1, 0, 0, 1, 1017, -0.000000000000014211)"><g clip-path="url(#a2c78ca2ef)"><g fill="#0a0a0a" fill-opacity="1"><g transform="translate(343.516662, 179.830122)"><g><path d="M -259.265625 77.234375 L -291.5 50.28125 L -196.953125 -62.84375 C -189.597656 -71.644531 -181.035156 -78.515625 -171.265625 -83.453125 C -161.503906 -88.390625 -151.257812 -91.335938 -140.53125 -92.296875 C -129.8125 -93.265625 -119.242188 -92.210938 -108.828125 -89.140625 C -98.421875 -86.066406 -88.816406 -80.847656 -80.015625 -73.484375 L -75.6875 -69.875 C -66.894531 -62.53125 -60.023438 -53.972656 -55.078125 -44.203125 C -50.140625 -34.441406 -47.191406 -24.195312 -46.234375 -13.46875 C -45.273438 -2.75 -46.359375 7.847656 -49.484375 18.328125 C -52.617188 28.816406 -57.863281 38.460938 -65.21875 47.265625 L -159.765625 160.390625 L -192.203125 133.28125 L -97.65625 20.15625 C -92.832031 14.382812 -89.804688 7.90625 -88.578125 0.71875 C -87.359375 -6.46875 -87.953125 -13.453125 -90.359375 -20.234375 C -92.773438 -27.023438 -96.863281 -32.828125 -102.625 -37.640625 L -106.953125 -41.25 C -112.722656 -46.070312 -119.160156 -49.066406 -126.265625 -50.234375 C -133.378906 -51.410156 -140.359375 -50.753906 -147.203125 -48.265625 C -154.054688 -45.785156 -159.894531 -41.660156 -164.71875 -35.890625 Z M -259.265625 77.234375 "/></g></g></g></g></g></g><g clip-path="url(#c649addb51)"><g transform="matrix(1, 0, 0, 1, -0.000000000000014211, 40)"><g clip-path="url(#40eef5fce7)"><g fill="#0a0a0a" fill-opacity="1"><g transform="translate(0.45567, 279.098578)"><g><path d="M 149 0 L 18.9375 0 L 18.9375 -212.5 L 59.046875 -212.5 L 59.046875 -35.921875 L 149 -35.921875 Z M 149 0 "/></g></g></g><g fill="#0a0a0a" fill-opacity="1"><g transform="translate(225.213689, 279.098578)"><g><path d="M 35.921875 -173.515625 C 29.609375 -173.515625 24.175781 -175.460938 19.625 -179.359375 C 15.082031 -183.265625 12.8125 -188.460938 12.8125 -194.953125 C 12.8125 -201.273438 15.082031 -206.429688 19.625 -210.421875 C 24.175781 -214.410156 29.609375 -216.40625 35.921875 -216.40625 C 42.234375 -216.40625 47.664062 -214.410156 52.21875 -210.421875 C 56.769531 -206.429688 59.046875 -201.273438 59.046875 -194.953125 C 59.046875 -188.460938 56.769531 -183.265625 52.21875 -179.359375 C 47.664062 -175.460938 42.234375 -173.515625 35.921875 -173.515625 Z M 54.59375 0 L 16.984375 0 L 16.984375 -156.25 L 54.59375 -156.25 Z M 54.59375 0 "/></g></g></g><g fill="#0a0a0a" fill-opacity="1"><g transform="translate(369.76132, 279.098578)"><g><path d="M 54.59375 0 L 16.984375 0 L 16.984375 -156.25 L 54.59375 -156.25 L 54.59375 -136.46875 C 60.90625 -145.195312 67.492188 -151.234375 74.359375 -154.578125 C 81.234375 -157.921875 88.847656 -159.59375 97.203125 -159.59375 C 111.492188 -159.59375 122.304688 -157.035156 129.640625 -151.921875 C 136.984375 -146.816406 142.414062 -140.644531 145.9375 -133.40625 C 149.09375 -126.539062 150.945312 -119.53125 151.5 -112.375 C 152.0625 -105.226562 152.34375 -97.753906 152.34375 -89.953125 L 152.34375 0 L 115.03125 0 L 115.03125 -90.515625 C 115.03125 -98.503906 114.378906 -104.957031 113.078125 -109.875 C 111.773438 -114.789062 109.828125 -118.738281 107.234375 -121.71875 C 102.773438 -126.351562 96.179688 -128.671875 87.453125 -128.671875 C 76.867188 -128.671875 68.976562 -125.515625 63.78125 -119.203125 C 60.625 -115.492188 58.300781 -110.570312 56.8125 -104.4375 C 55.332031 -98.3125 54.59375 -90.050781 54.59375 -79.65625 Z M 54.59375 0 "/></g></g></g><g fill="#0a0a0a" fill-opacity="1"><g transform="translate(610.951347, 279.098578)"><g><path d="M 54.875 0 L 17.265625 0 L 17.265625 -212.5 L 54.875 -212.5 L 54.875 -98.59375 L 111.96875 -156.25 L 159.59375 -156.25 L 90.515625 -88.5625 L 164.609375 0 L 118.375 0 L 54.875 -77.703125 Z M 54.875 0 "/></g></g></g><g fill="#0a0a0a" fill-opacity="1"><g transform="translate(849.634719, 279.098578)"><g><path d="M 54.59375 0 L 16.984375 0 L 16.984375 -156.25 L 54.59375 -156.25 L 54.59375 -137.59375 C 60.53125 -145.757812 67.164062 -151.46875 74.5 -154.71875 C 81.832031 -157.96875 90.050781 -159.59375 99.15625 -159.59375 L 103.609375 -159.59375 L 103.609375 -123.375 L 94.96875 -123.375 C 88.65625 -123.375 83.222656 -122.539062 78.671875 -120.875 C 74.128906 -119.207031 70.28125 -116.882812 67.125 -113.90625 C 63.039062 -109.820312 59.929688 -104.484375 57.796875 -97.890625 C 55.660156 -91.304688 54.59375 -82.8125 54.59375 -72.40625 Z M 54.59375 0 "/></g></g></g></g></g></g></g></g></svg>